<?xml version="1.0" encoding="UTF-8"?>
<svg width="1024" height="1024" viewBox="0 0 1024 1024" xmlns="http://www.w3.org/2000/svg">
  <defs>
    <linearGradient id="bg" x1="120" y1="84" x2="902" y2="930" gradientUnits="userSpaceOnUse">
      <stop offset="0" stop-color="#102D29"/>
      <stop offset="1" stop-color="#0E1110"/>
    </linearGradient>
    <linearGradient id="c" x1="260" y1="230" x2="780" y2="800" gradientUnits="userSpaceOnUse">
      <stop offset="0" stop-color="#D7FAEA"/>
      <stop offset="0.56" stop-color="#5EEAD4"/>
      <stop offset="1" stop-color="#22D3EE"/>
    </linearGradient>
    <filter id="shadow" x="-20%" y="-20%" width="140%" height="140%">
      <feDropShadow dx="0" dy="22" stdDeviation="30" flood-color="#000000" flood-opacity="0.32"/>
    </filter>
  </defs>
  <rect x="64" y="64" width="896" height="896" rx="212" fill="url(#bg)"/>
  <path d="M690 300C640 255 572 232 500 236C355 244 246 361 246 512C246 669 365 784 523 784C606 784 677 752 728 696" fill="none" stroke="url(#c)" stroke-width="92" stroke-linecap="round" filter="url(#shadow)"/>
  <path d="M342 512H398L430 420L490 628L548 396L596 586L638 512H726" fill="none" stroke="#F8FFFF" stroke-width="44" stroke-linecap="round" stroke-linejoin="round"/>
  <path d="M342 512H398L430 420L490 628L548 396L596 586L638 512H726" fill="none" stroke="#67E8F9" stroke-opacity="0.78" stroke-width="24" stroke-linecap="round" stroke-linejoin="round"/>
</svg>