<?xml version="1.0" encoding="UTF-8"?>
<svg width="1024" height="1024" viewBox="0 0 1024 1024" xmlns="http://www.w3.org/2000/svg">
  <defs>
    <linearGradient id="background" x1="164" y1="126" x2="860" y2="902" gradientUnits="userSpaceOnUse">
      <stop offset="0" stop-color="#0F2A27"/>
      <stop offset="1" stop-color="#101312"/>
    </linearGradient>
    <linearGradient id="mark" x1="286" y1="258" x2="766" y2="774" gradientUnits="userSpaceOnUse">
      <stop offset="0" stop-color="#D1FAE5"/>
      <stop offset="0.54" stop-color="#5EEAD4"/>
      <stop offset="1" stop-color="#22D3EE"/>
    </linearGradient>
    <filter id="shadow" x="-20%" y="-20%" width="140%" height="140%">
      <feDropShadow dx="0" dy="22" stdDeviation="28" flood-color="#000000" flood-opacity="0.34"/>
    </filter>
  </defs>

  <rect x="64" y="64" width="896" height="896" rx="212" fill="url(#background)"/>
  <path
    d="M682 300C623 252 545 232 469 247C347 271 260 377 260 512C260 671 381 777 525 777C598 777 663 749 712 704"
    fill="none"
    stroke="url(#mark)"
    stroke-width="92"
    stroke-linecap="round"
    filter="url(#shadow)"
  />
  <path
    d="M350 512H404L436 420L491 628L545 396L594 586L637 512H724"
    fill="none"
    stroke="#F8FFFF"
    stroke-width="44"
    stroke-linecap="round"
    stroke-linejoin="round"
  />
  <path
    d="M350 512H404L436 420L491 628L545 396L594 586L637 512H724"
    fill="none"
    stroke="#67E8F9"
    stroke-opacity="0.78"
    stroke-width="24"
    stroke-linecap="round"
    stroke-linejoin="round"
  />
</svg>
